<mxfile host="app.diagrams.net" modified="2021-04-04T04:06:29.098Z" agent="5.0 (Windows NT 10.0; Win64; x64) AppleWebKit/537.36 (KHTML, like Gecko) Chrome/88.0.4324.150  Safari/537.36" etag="QS7jQFvmaZjrSi4aJX8S" version="14.5.7" type="github">
  <diagram id="1P3oDNLEu6JYjWxT9ylu" name="Page-1">
    <mxGraphModel dx="1019" dy="519" grid="1" gridSize="10" guides="1" tooltips="1" connect="1" arrows="1" fold="1" page="1" pageScale="1" pageWidth="850" pageHeight="1100" math="0" shadow="0">
      <root>
        <mxCell id="0" />
        <mxCell id="1" parent="0" />
        <mxCell id="BaN6LKqBQSgXskJ5QQ7J-1" value="M5 DB&lt;br&gt;US" style="shape=cylinder3;whiteSpace=wrap;html=1;boundedLbl=1;backgroundOutline=1;size=15;fillColor=#f8cecc;strokeColor=#b85450;gradientColor=#ea6b66;fontStyle=1" vertex="1" parent="1">
          <mxGeometry x="230" y="46" width="60" height="80" as="geometry" />
        </mxCell>
        <mxCell id="BaN6LKqBQSgXskJ5QQ7J-36" style="edgeStyle=orthogonalEdgeStyle;rounded=0;orthogonalLoop=1;jettySize=auto;html=1;entryX=0.5;entryY=0;entryDx=0;entryDy=0;fontSize=12;fontColor=#000000;" edge="1" parent="1" source="BaN6LKqBQSgXskJ5QQ7J-4" target="BaN6LKqBQSgXskJ5QQ7J-16">
          <mxGeometry relative="1" as="geometry" />
        </mxCell>
        <mxCell id="BaN6LKqBQSgXskJ5QQ7J-38" style="edgeStyle=orthogonalEdgeStyle;rounded=0;orthogonalLoop=1;jettySize=auto;html=1;fontSize=12;fontColor=#000000;" edge="1" parent="1" source="BaN6LKqBQSgXskJ5QQ7J-4" target="BaN6LKqBQSgXskJ5QQ7J-20">
          <mxGeometry relative="1" as="geometry" />
        </mxCell>
        <mxCell id="BaN6LKqBQSgXskJ5QQ7J-55" style="edgeStyle=orthogonalEdgeStyle;rounded=0;orthogonalLoop=1;jettySize=auto;html=1;entryX=0;entryY=0.5;entryDx=0;entryDy=0;fontSize=12;fontColor=#000000;" edge="1" parent="1" source="BaN6LKqBQSgXskJ5QQ7J-4" target="BaN6LKqBQSgXskJ5QQ7J-30">
          <mxGeometry relative="1" as="geometry" />
        </mxCell>
        <mxCell id="BaN6LKqBQSgXskJ5QQ7J-4" value="" style="strokeColor=#dddddd;shadow=1;strokeWidth=1;rounded=1;absoluteArcSize=1;arcSize=2;" vertex="1" parent="1">
          <mxGeometry x="294" y="180" width="150" height="60" as="geometry" />
        </mxCell>
        <mxCell id="BaN6LKqBQSgXskJ5QQ7J-5" value="&lt;font color=&quot;#000000&quot;&gt;GlobalCatalog&lt;br&gt;Synchronizer&lt;br&gt;&lt;/font&gt;" style="dashed=0;connectable=0;html=1;fillColor=#5184F3;strokeColor=none;shape=mxgraph.gcp2.hexIcon;prIcon=cloud_functions;part=1;labelPosition=right;verticalLabelPosition=middle;align=left;verticalAlign=middle;spacingLeft=5;fontColor=#999999;fontSize=12;" vertex="1" parent="BaN6LKqBQSgXskJ5QQ7J-4">
          <mxGeometry y="0.5" width="44" height="39" relative="1" as="geometry">
            <mxPoint x="5" y="-19.5" as="offset" />
          </mxGeometry>
        </mxCell>
        <mxCell id="BaN6LKqBQSgXskJ5QQ7J-15" style="edgeStyle=orthogonalEdgeStyle;rounded=0;orthogonalLoop=1;jettySize=auto;html=1;fontSize=16;fontColor=#000000;" edge="1" parent="1" source="BaN6LKqBQSgXskJ5QQ7J-6" target="BaN6LKqBQSgXskJ5QQ7J-4">
          <mxGeometry relative="1" as="geometry" />
        </mxCell>
        <mxCell id="BaN6LKqBQSgXskJ5QQ7J-6" value="Cloud Cron Job" style="html=1;fillColor=#5184F3;strokeColor=none;verticalAlign=top;labelPosition=center;verticalLabelPosition=bottom;align=center;fontSize=11;fontStyle=1;shape=mxgraph.gcp2.cloud_scheduler" vertex="1" parent="1">
          <mxGeometry x="179" y="190" width="35" height="40" as="geometry" />
        </mxCell>
        <mxCell id="BaN6LKqBQSgXskJ5QQ7J-8" style="edgeStyle=orthogonalEdgeStyle;rounded=0;orthogonalLoop=1;jettySize=auto;html=1;entryX=0;entryY=0.5;entryDx=0;entryDy=0;entryPerimeter=0;" edge="1" parent="1" source="BaN6LKqBQSgXskJ5QQ7J-7" target="BaN6LKqBQSgXskJ5QQ7J-1">
          <mxGeometry relative="1" as="geometry" />
        </mxCell>
        <mxCell id="BaN6LKqBQSgXskJ5QQ7J-7" value="US SDAPI&lt;br&gt;[GCP]" style="rounded=1;whiteSpace=wrap;html=1;gradientColor=#d5739d;fillColor=#e6d0de;strokeColor=#996185;fontStyle=1" vertex="1" parent="1">
          <mxGeometry x="50" y="66" width="80" height="40" as="geometry" />
        </mxCell>
        <mxCell id="BaN6LKqBQSgXskJ5QQ7J-12" style="edgeStyle=orthogonalEdgeStyle;rounded=0;orthogonalLoop=1;jettySize=auto;html=1;entryX=0.105;entryY=0.478;entryDx=0;entryDy=0;entryPerimeter=0;fontColor=#000000;" edge="1" parent="1">
          <mxGeometry relative="1" as="geometry">
            <mxPoint x="108" y="212" as="sourcePoint" />
            <mxPoint x="176.67499999999995" y="212.12" as="targetPoint" />
            <Array as="points">
              <mxPoint x="154" y="212" />
              <mxPoint x="154" y="212" />
            </Array>
          </mxGeometry>
        </mxCell>
        <mxCell id="BaN6LKqBQSgXskJ5QQ7J-11" value="Hourly" style="text;html=1;strokeColor=none;fillColor=none;align=center;verticalAlign=middle;whiteSpace=wrap;rounded=0;fontColor=#000000;fontStyle=1;fontSize=16;" vertex="1" parent="1">
          <mxGeometry x="60" y="200" width="40" height="20" as="geometry" />
        </mxCell>
        <mxCell id="BaN6LKqBQSgXskJ5QQ7J-16" value="" style="strokeColor=#dddddd;shadow=1;strokeWidth=1;rounded=1;absoluteArcSize=1;arcSize=2;fontSize=16;fontColor=#000000;labelBackgroundColor=none;" vertex="1" parent="1">
          <mxGeometry x="200" y="325" width="110" height="60" as="geometry" />
        </mxCell>
        <mxCell id="BaN6LKqBQSgXskJ5QQ7J-17" value="&lt;font color=&quot;#000000&quot;&gt;Cloud&lt;br&gt;Storage&lt;/font&gt;" style="dashed=0;connectable=0;html=1;fillColor=#5184F3;strokeColor=none;shape=mxgraph.gcp2.hexIcon;prIcon=cloud_storage;part=1;labelPosition=right;verticalLabelPosition=middle;align=left;verticalAlign=middle;spacingLeft=5;fontColor=#999999;fontSize=12;" vertex="1" parent="BaN6LKqBQSgXskJ5QQ7J-16">
          <mxGeometry y="0.5" width="44" height="39" relative="1" as="geometry">
            <mxPoint x="5" y="-19.5" as="offset" />
          </mxGeometry>
        </mxCell>
        <mxCell id="BaN6LKqBQSgXskJ5QQ7J-20" value="" style="strokeColor=#dddddd;shadow=1;strokeWidth=1;rounded=1;absoluteArcSize=1;arcSize=2;fontSize=16;fontColor=#000000;" vertex="1" parent="1">
          <mxGeometry x="423" y="325" width="110" height="60" as="geometry" />
        </mxCell>
        <mxCell id="BaN6LKqBQSgXskJ5QQ7J-21" value="&lt;font color=&quot;#000000&quot;&gt;Cloud&lt;br&gt;Storage&lt;/font&gt;" style="dashed=0;connectable=0;html=1;fillColor=#5184F3;strokeColor=none;shape=mxgraph.gcp2.hexIcon;prIcon=cloud_storage;part=1;labelPosition=right;verticalLabelPosition=middle;align=left;verticalAlign=middle;spacingLeft=5;fontColor=#999999;fontSize=12;" vertex="1" parent="BaN6LKqBQSgXskJ5QQ7J-20">
          <mxGeometry y="0.5" width="44" height="39" relative="1" as="geometry">
            <mxPoint x="5" y="-19.5" as="offset" />
          </mxGeometry>
        </mxCell>
        <mxCell id="BaN6LKqBQSgXskJ5QQ7J-39" value="&amp;lt;&amp;lt;&lt;br&gt;Check Last &lt;br&gt;Timestamp&lt;br&gt;&amp;gt;&amp;gt;" style="edgeStyle=orthogonalEdgeStyle;rounded=0;orthogonalLoop=1;jettySize=auto;html=1;entryX=1;entryY=0.5;entryDx=0;entryDy=0;fontSize=12;fontColor=#000000;" edge="1" parent="1" source="BaN6LKqBQSgXskJ5QQ7J-30" target="BaN6LKqBQSgXskJ5QQ7J-20">
          <mxGeometry x="-0.4261" relative="1" as="geometry">
            <mxPoint as="offset" />
          </mxGeometry>
        </mxCell>
        <mxCell id="BaN6LKqBQSgXskJ5QQ7J-47" style="edgeStyle=orthogonalEdgeStyle;rounded=0;orthogonalLoop=1;jettySize=auto;html=1;fontSize=12;fontColor=#000000;" edge="1" parent="1" source="BaN6LKqBQSgXskJ5QQ7J-30">
          <mxGeometry relative="1" as="geometry">
            <mxPoint x="560" y="120" as="targetPoint" />
          </mxGeometry>
        </mxCell>
        <mxCell id="BaN6LKqBQSgXskJ5QQ7J-48" style="edgeStyle=orthogonalEdgeStyle;rounded=0;orthogonalLoop=1;jettySize=auto;html=1;entryX=0;entryY=0.5;entryDx=0;entryDy=0;fontSize=12;fontColor=#000000;" edge="1" parent="1" source="BaN6LKqBQSgXskJ5QQ7J-30" target="BaN6LKqBQSgXskJ5QQ7J-41">
          <mxGeometry relative="1" as="geometry" />
        </mxCell>
        <mxCell id="BaN6LKqBQSgXskJ5QQ7J-30" value="" style="rhombus;fontSize=12;fontColor=#000000;fontStyle=1" vertex="1" parent="1">
          <mxGeometry x="500" y="158" width="120" height="105" as="geometry" />
        </mxCell>
        <mxCell id="BaN6LKqBQSgXskJ5QQ7J-33" value="Bucket: US_Global_Catalog" style="text;html=1;strokeColor=none;fillColor=none;align=center;verticalAlign=middle;whiteSpace=wrap;rounded=0;fontSize=12;fontColor=#000000;fontStyle=1" vertex="1" parent="1">
          <mxGeometry x="195" y="400" width="120" height="20" as="geometry" />
        </mxCell>
        <mxCell id="BaN6LKqBQSgXskJ5QQ7J-34" value="Bucket: US_Last_Scrape_Timestamp" style="text;html=1;strokeColor=none;fillColor=none;align=center;verticalAlign=middle;whiteSpace=wrap;rounded=0;fontSize=12;fontColor=#000000;fontStyle=1" vertex="1" parent="1">
          <mxGeometry x="440" y="400" width="120" height="20" as="geometry" />
        </mxCell>
        <mxCell id="BaN6LKqBQSgXskJ5QQ7J-40" value="Found&lt;br&gt;Last_Scrape_&lt;br&gt;Timestamp?" style="text;html=1;strokeColor=none;fillColor=none;align=center;verticalAlign=middle;whiteSpace=wrap;rounded=0;fontSize=12;fontColor=#000000;fontStyle=1" vertex="1" parent="1">
          <mxGeometry x="540" y="201.5" width="40" height="20" as="geometry" />
        </mxCell>
        <mxCell id="BaN6LKqBQSgXskJ5QQ7J-52" style="edgeStyle=orthogonalEdgeStyle;rounded=0;orthogonalLoop=1;jettySize=auto;html=1;entryX=0.5;entryY=0;entryDx=0;entryDy=0;entryPerimeter=0;fontSize=12;fontColor=#000000;" edge="1" parent="1" source="BaN6LKqBQSgXskJ5QQ7J-41" target="BaN6LKqBQSgXskJ5QQ7J-1">
          <mxGeometry relative="1" as="geometry">
            <Array as="points">
              <mxPoint x="735" y="26" />
              <mxPoint x="260" y="26" />
            </Array>
          </mxGeometry>
        </mxCell>
        <mxCell id="BaN6LKqBQSgXskJ5QQ7J-53" value="&amp;lt;&amp;lt;&lt;br&gt;Get&amp;nbsp;&lt;br&gt;Full Data Dump&lt;br&gt;&amp;gt;&amp;gt;" style="edgeLabel;html=1;align=center;verticalAlign=middle;resizable=0;points=[];fontSize=12;fontColor=#000000;" vertex="1" connectable="0" parent="BaN6LKqBQSgXskJ5QQ7J-52">
          <mxGeometry x="-0.6268" y="-3" relative="1" as="geometry">
            <mxPoint as="offset" />
          </mxGeometry>
        </mxCell>
        <mxCell id="BaN6LKqBQSgXskJ5QQ7J-41" value="" style="strokeColor=#dddddd;shadow=1;strokeWidth=1;rounded=1;absoluteArcSize=1;arcSize=2;" vertex="1" parent="1">
          <mxGeometry x="660" y="180" width="150" height="60" as="geometry" />
        </mxCell>
        <mxCell id="BaN6LKqBQSgXskJ5QQ7J-42" value="&lt;font color=&quot;#000000&quot;&gt;FullDump&lt;br&gt;QueryService&lt;br&gt;&lt;/font&gt;" style="dashed=0;connectable=0;html=1;fillColor=#5184F3;strokeColor=none;shape=mxgraph.gcp2.hexIcon;prIcon=cloud_functions;part=1;labelPosition=right;verticalLabelPosition=middle;align=left;verticalAlign=middle;spacingLeft=5;fontColor=#999999;fontSize=12;" vertex="1" parent="BaN6LKqBQSgXskJ5QQ7J-41">
          <mxGeometry y="0.5" width="44" height="39" relative="1" as="geometry">
            <mxPoint x="5" y="-19.5" as="offset" />
          </mxGeometry>
        </mxCell>
        <mxCell id="BaN6LKqBQSgXskJ5QQ7J-45" style="edgeStyle=orthogonalEdgeStyle;rounded=0;orthogonalLoop=1;jettySize=auto;html=1;entryX=1;entryY=0.5;entryDx=0;entryDy=0;entryPerimeter=0;fontSize=12;fontColor=#000000;" edge="1" parent="1" target="BaN6LKqBQSgXskJ5QQ7J-1">
          <mxGeometry relative="1" as="geometry">
            <mxPoint x="485" y="86" as="sourcePoint" />
            <Array as="points">
              <mxPoint x="480" y="86" />
              <mxPoint x="480" y="86" />
            </Array>
          </mxGeometry>
        </mxCell>
        <mxCell id="BaN6LKqBQSgXskJ5QQ7J-54" value="&amp;lt;&amp;lt;&lt;br&gt;Get Incremental &lt;br&gt;Dump&lt;br&gt;&amp;gt;&amp;gt;" style="edgeLabel;html=1;align=center;verticalAlign=middle;resizable=0;points=[];fontSize=12;fontColor=#000000;" vertex="1" connectable="0" parent="BaN6LKqBQSgXskJ5QQ7J-45">
          <mxGeometry x="-0.6274" y="1" relative="1" as="geometry">
            <mxPoint x="-59" y="-3" as="offset" />
          </mxGeometry>
        </mxCell>
        <mxCell id="BaN6LKqBQSgXskJ5QQ7J-43" value="" style="strokeColor=#dddddd;shadow=1;strokeWidth=1;rounded=1;absoluteArcSize=1;arcSize=2;" vertex="1" parent="1">
          <mxGeometry x="485" y="56" width="165" height="60" as="geometry" />
        </mxCell>
        <mxCell id="BaN6LKqBQSgXskJ5QQ7J-44" value="&lt;font color=&quot;#000000&quot;&gt;IncrementalDump&lt;br&gt;QueryService&lt;br&gt;&lt;/font&gt;" style="dashed=0;connectable=0;html=1;fillColor=#5184F3;strokeColor=none;shape=mxgraph.gcp2.hexIcon;prIcon=cloud_functions;part=1;labelPosition=right;verticalLabelPosition=middle;align=left;verticalAlign=middle;spacingLeft=5;fontColor=#999999;fontSize=12;" vertex="1" parent="BaN6LKqBQSgXskJ5QQ7J-43">
          <mxGeometry y="0.5" width="44" height="39" relative="1" as="geometry">
            <mxPoint x="5" y="-19.5" as="offset" />
          </mxGeometry>
        </mxCell>
        <mxCell id="BaN6LKqBQSgXskJ5QQ7J-49" value="No" style="text;html=1;strokeColor=none;fillColor=none;align=center;verticalAlign=middle;whiteSpace=wrap;rounded=0;fontSize=12;fontColor=#000000;" vertex="1" parent="1">
          <mxGeometry x="616" y="184" width="40" height="20" as="geometry" />
        </mxCell>
        <mxCell id="BaN6LKqBQSgXskJ5QQ7J-51" value="Yes" style="text;html=1;strokeColor=none;fillColor=none;align=center;verticalAlign=middle;whiteSpace=wrap;rounded=0;fontSize=12;fontColor=#000000;" vertex="1" parent="1">
          <mxGeometry x="570" y="130" width="40" height="20" as="geometry" />
        </mxCell>
      </root>
    </mxGraphModel>
  </diagram>
</mxfile>
